<mxfile host="app.diagrams.net" modified="2023-09-22T20:13:26.121Z" agent="Mozilla/5.0 (Windows NT 10.0; Win64; x64) AppleWebKit/537.36 (KHTML, like Gecko) Chrome/114.0.0.0 YaBrowser/23.7.5.734 Yowser/2.5 Safari/537.36" etag="R3M-COXeVWQxsY8-Q9d2" version="21.8.1" type="device">
  <diagram name="Page-1" id="929967ad-93f9-6ef4-fab6-5d389245f69c">
    <mxGraphModel dx="1253" dy="719" grid="1" gridSize="10" guides="1" tooltips="1" connect="1" arrows="1" fold="1" page="1" pageScale="1.5" pageWidth="1169" pageHeight="826" background="none" math="0" shadow="0">
      <root>
        <mxCell id="0" style=";html=1;" />
        <mxCell id="1" style=";html=1;" parent="0" />
        <mxCell id="1672d66443f91eb5-1" value="Диаграмма компонентов" style="html=1;strokeWidth=1;shape=mxgraph.sysml.package;html=1;overflow=fill;whiteSpace=wrap;fillColor=none;gradientColor=none;fontSize=12;align=left;labelX=327.64;" parent="1" vertex="1">
          <mxGeometry x="1360" y="280" width="760" height="290" as="geometry" />
        </mxCell>
        <mxCell id="1672d66443f91eb5-7" value="&lt;p&gt;База данных&lt;/p&gt;" style="shape=rect;html=1;overflow=fill;whiteSpace=wrap;align=center;fontStyle=1" parent="1" vertex="1">
          <mxGeometry x="1460" y="420" width="160" height="70" as="geometry" />
        </mxCell>
        <mxCell id="1672d66443f91eb5-8" value="&lt;p&gt;Модуль валидации&amp;nbsp;&lt;/p&gt;" style="shape=rect;html=1;overflow=fill;whiteSpace=wrap;align=center;fontStyle=1" parent="1" vertex="1">
          <mxGeometry x="1680" y="420" width="160" height="70" as="geometry" />
        </mxCell>
        <mxCell id="1672d66443f91eb5-9" value="&lt;p&gt;Форма авторизации/регистрации&lt;/p&gt;" style="shape=rect;html=1;overflow=fill;whiteSpace=wrap;align=center;fontStyle=1" parent="1" vertex="1">
          <mxGeometry x="1887" y="420" width="160" height="70" as="geometry" />
        </mxCell>
        <mxCell id="1672d66443f91eb5-23" value="Title" style="text;strokeColor=none;fillColor=none;html=1;fontSize=24;fontStyle=1;verticalAlign=middle;align=center;" parent="1" vertex="1">
          <mxGeometry x="120" y="40" width="1510" height="40" as="geometry" />
        </mxCell>
        <mxCell id="S0_WvtGhWbU_NsDQfnv4-2" value="" style="endArrow=classic;startArrow=classic;html=1;rounded=0;" edge="1" parent="1" source="1672d66443f91eb5-8" target="1672d66443f91eb5-9">
          <mxGeometry width="50" height="50" relative="1" as="geometry">
            <mxPoint x="1860" y="465" as="sourcePoint" />
            <mxPoint x="1910" y="415" as="targetPoint" />
          </mxGeometry>
        </mxCell>
        <mxCell id="S0_WvtGhWbU_NsDQfnv4-3" value="" style="endArrow=classic;startArrow=classic;html=1;rounded=0;exitX=1;exitY=0.5;exitDx=0;exitDy=0;" edge="1" parent="1" source="1672d66443f91eb5-7" target="1672d66443f91eb5-8">
          <mxGeometry width="50" height="50" relative="1" as="geometry">
            <mxPoint x="1857" y="465" as="sourcePoint" />
            <mxPoint x="1897" y="465" as="targetPoint" />
          </mxGeometry>
        </mxCell>
      </root>
    </mxGraphModel>
  </diagram>
</mxfile>
